<?xml version="1.0" standalone="no"?>
<!DOCTYPE svg PUBLIC "-//W3C//DTD SVG 20010904//EN"
 "http://www.w3.org/TR/2001/REC-SVG-20010904/DTD/svg10.dtd">

<svg version="1.0" xmlns="http://www.w3.org/2000/svg" width="256.000000pt" height="500.000000pt" viewBox="0 0 256.000000 500.000000" preserveAspectRatio="xMidYMid meet">
	<path id='Las-Pinas' transform="translate(0.000000,500.000000) scale(0.100000,-0.100000)" fill="#a9a9a9" stroke="#636363" stroke-width="5"
	d="M782 1575 c-7 -14 -32 -40 -57 -57 -30 -21 -42 -35 -35 -42 15 -15 12 -36 -4 -36 -20 0 -31 -20 -17 -29 8 -5 6 -13 -8 -25 -19 -17 -19 -18 0 -73
	10 -31 19 -76 19 -99 0 -69 35 -150 78 -179 20 -14 45 -25 54 -25 10 0 18 -7 18 -16 0 -27 43 -118 63 -135 14 -11 18 -24 15 -42 -4 -18 1 -32 14 -44 10 -9
	24 -37 30 -61 6 -25 18 -47 27 -49 27 -7 56 -56 56 -94 0 -32 4 -40 33 -55 33 -18 34 -18 49 1 7 11 21 45 29 75 22 79 35 112 56 139 10 13 18 28 18 33 0 5
	11 26 25 46 18 26 25 50 25 82 0 25 7 58 15 74 19 36 14 44 -41 57 -43 11 -44 12 -44 51 0 34 -7 47 -57 99 -31 32 -64 59 -73 59 -17 0 -30 51 -30 115 0 13
	-14 48 -32 78 -24 42 -38 57 -61 61 -23 5 -28 10 -22 23 4 10 10 28 12 41 5 18 1 22 -21 22 -15 0 -43 7 -63 15 -48 20 -58 19 -71 -10z"/>
</svg>