<?xml version="1.0" standalone="no"?>
<!DOCTYPE svg PUBLIC "-//W3C//DTD SVG 20010904//EN"
 "http://www.w3.org/TR/2001/REC-SVG-20010904/DTD/svg10.dtd">

<svg version="1.0" xmlns="http://www.w3.org/2000/svg" width="256.000000pt" height="500.000000pt" viewBox="0 0 256.000000 500.000000" preserveAspectRatio="xMidYMid meet">
	<path id='Makati' transform="translate(0.000000,500.000000) scale(0.100000,-0.100000)" fill="#a9a9a9" stroke="#636363" stroke-width="5"
	d="M1194 2625 c-10 -14 -22 -25 -27 -25 -4 0 -42 -34 -83 -77 -68 -68 -75 -79 -70 -106 3 -16 6 -35 6 -42 0 -7 23 -27 50 -44 28 -17 50 -37 49 -44
	-1 -6 -1 -31 0 -54 1 -37 4 -43 22 -43 20 0 21 -4 16 -48 l-6 -48 42 -11 c23 -6 52 -14 65 -18 17 -6 22 -3 22 9 0 17 48 42 130 68 27 9 49 23 55 36 5 12
	17 22 25 22 19 0 60 28 60 40 0 5 -11 22 -24 37 -18 21 -24 40 -23 66 2 32 4 35 25 30 34 -8 76 14 89 48 11 29 13 30 40 16 15 -8 36 -24 47 -35 18 -20 17
	-22 -13 -64 -17 -24 -38 -58 -48 -75 -16 -32 -16 -33 7 -58 20 -21 23 -35 22 -78 l-3 -52 31 33 c16 17 39 32 50 32 27 0 25 26 -5 62 -27 32 -32 50 -12 43
	7 -3 22 13 36 37 23 40 23 42 5 55 -14 10 -15 16 -6 25 20 20 14 56 -10 69 -13 7 -36 23 -51 35 -16 13 -39 24 -52 24 -12 0 -28 7 -35 15 -15 18 -111 21
	-158 4 -28 -9 -36 -8 -62 13 -17 12 -43 35 -57 51 -15 15 -30 27 -34 27 -5 0 -25 11 -45 25 -20 14 -40 25 -44 25 -4 0 -16 -11 -26 -25z"/>
</svg>