<?xml version="1.0" standalone="no"?>
<!DOCTYPE svg PUBLIC "-//W3C//DTD SVG 20010904//EN"
 "http://www.w3.org/TR/2001/REC-SVG-20010904/DTD/svg10.dtd">
<svg version="1.0" xmlns="http://www.w3.org/2000/svg" width="256.000000pt" height="500.000000pt" viewBox="0 0 256.000000 500.000000" preserveAspectRatio="xMidYMid meet">
	<path id='Malabon' transform="translate(0.000000,500.000000) scale(0.100000,-0.100000)" fill="#a9a9a9" stroke="#636363" stroke-width="5"
	d="M205 4055 l-40 -34 24 -25 c14 -14 21 -29 18 -33 -10 -9 23 -43 41 -43 24 0 92 -60 92 -82 0 -11 9 -31 20 -45 11 -14 20 -34 20 -44 0 -11 15 -36
	34 -56 39 -43 66 -103 66 -144 0 -15 11 -40 24 -56 20 -23 26 -25 39 -14 21 16 37 6 37 -23 0 -27 44 -71 60 -61 6 4 9 14 6 22 -4 9 -1 22 5 29 9 11 8 18
	-2 31 -8 9 -13 24 -11 34 2 9 -2 20 -8 24 -21 13 -8 22 34 22 25 0 52 6 61 13 11 9 37 11 94 7 70 -6 81 -4 96 13 10 11 23 20 30 20 6 0 24 14 40 30 16 17
	34 30 41 30 25 0 27 23 4 42 -31 25 -45 23 -91 -14 -37 -29 -40 -30 -57 -15 -10 10 -28 17 -40 17 -17 0 -22 6 -22 26 0 23 -3 25 -25 20 -20 -5 -25 -3 -25
	13 0 14 -10 20 -41 25 -22 4 -44 4 -50 1 -5 -4 -9 0 -9 9 0 8 -16 35 -35 60 -19 26 -35 49 -35 53 0 5 -8 27 -17 50 -18 44 -46 57 -57 28 -3 -9 -13 -15
	-23 -13 -10 2 -25 -10 -37 -29 -12 -18 -25 -32 -31 -33 -5 0 -50 40 -100 89 l-90 90 -40 -34z"/>
</svg>
