<?xml version="1.0" standalone="no"?>
<!DOCTYPE svg PUBLIC "-//W3C//DTD SVG 20010904//EN"
 "http://www.w3.org/TR/2001/REC-SVG-20010904/DTD/svg10.dtd">
<svg version="1.0" xmlns="http://www.w3.org/2000/svg" width="256.000000pt" height="500.000000pt" viewBox="0 0 256.000000 500.000000" preserveAspectRatio="xMidYMid meet">
	<path id='Manila' transform="translate(0.000000,500.000000) scale(0.100000,-0.100000)" fill="#a9a9a9" stroke="#636363" stroke-width="5"
	d="M886 3372 c-19 -37 -42 -56 -51 -42 -9 14 -25 3 -25 -18 0 -15 -13 -17 -107 -17 -275 -1 -323 -4 -323 -20 0 -8 10 -25 21 -36 17 -17 29 -20 60
	-16 76 10 76 10 83 -131 4 -70 10 -136 12 -148 4 -17 -2 -22 -33 -32 -21 -6 -59 -14 -85 -17 -40 -6 -48 -11 -48 -29 1 -51 11 -53 163 -29 31 5 37 3 37
	-12 0 -9 9 -19 20 -22 25 -7 25 -11 -2 -40 l-22 -24 46 -46 c40 -40 49 -45 62 -33 14 11 19 9 37 -14 11 -14 33 -33 48 -40 20 -11 35 -34 55 -88 40 -103 41
	-104 123 -89 66 12 69 14 128 81 33 38 70 72 83 76 12 3 22 9 22 13 0 4 8 16 18 27 18 21 37 51 59 95 7 14 24 36 38 49 40 37 33 72 -24 128 -27 26 -68 61
	-92 77 -57 38 -184 141 -226 182 -33 32 -33 34 -18 62 18 36 20 81 3 81 -33 1 -40 16 -24 49 9 17 14 36 11 41 -12 19 -35 10 -49 -18z"/>
</svg>
