<?xml version="1.0" standalone="no"?>
<!DOCTYPE svg PUBLIC "-//W3C//DTD SVG 20010904//EN"
 "http://www.w3.org/TR/2001/REC-SVG-20010904/DTD/svg10.dtd">
<svg version="1.0" xmlns="http://www.w3.org/2000/svg" width="256.000000pt" height="500.000000pt" viewBox="0 0 256.000000 500.000000" preserveAspectRatio="xMidYMid meet">
	<path id='Marikina' transform="translate(0.000000,500.000000) scale(0.100000,-0.100000)" fill="#a9a9a9" stroke="#636363" stroke-width="5"
	d="M2196 3709 c-14 -17 -26 -39 -26 -50 0 -26 -16 -24 -23 2 -8 31 -26 15 -58 -56 -15 -34 -40 -76 -54 -93 -25 -30 -26 -31 -62 -16 -35 15 -36 15
	-29 -8 21 -69 18 -103 -13 -167 -17 -36 -31 -75 -31 -87 0 -12 -7 -24 -15 -28 -17 -6 -20 -51 -5 -61 6 -4 8 -15 5 -25 -9 -29 28 -45 49 -21 9 9 16 23 16 31
	0 9 4 9 13 2 6 -5 52 -15 100 -22 122 -17 147 -7 147 60 0 64 7 80 36 80 17 0 27 8 34 25 13 33 36 42 59 21 20 -19 42 -21 58 -5 8 8 19 5 42 -12 17 -12 33
	-20 37 -17 3 4 7 48 9 99 3 87 5 95 29 114 32 25 34 66 6 102 -11 14 -20 36 -20 48 0 13 -11 30 -25 39 -27 18 -45 14 -45 -10 0 -26 -31 -14 -41 16 -6 17
	-17 30 -24 30 -7 0 -15 5 -17 10 -5 16 -66 0 -71 -19 -4 -12 -5 -11 -6 5 -1 23 -19 44 -37 44 -7 0 -24 -14 -38 -31z"/>
</svg>