<?xml version="1.0" standalone="no"?>
<!DOCTYPE svg PUBLIC "-//W3C//DTD SVG 20010904//EN"
 "http://www.w3.org/TR/2001/REC-SVG-20010904/DTD/svg10.dtd">
<svg version="1.0" xmlns="http://www.w3.org/2000/svg" width="256.000000pt" height="500.000000pt" viewBox="0 0 256.000000 500.000000" preserveAspectRatio="xMidYMid meet">
	<path id='Muntinlupa' transform="translate(0.000000,500.000000) scale(0.100000,-0.100000)" fill="#a9a9a9" stroke="#636363" stroke-width="5"
	d="M1603 1377 c-4 -7 -25 -23 -46 -37 l-37 -25 6 -57 c4 -31 3 -77 0 -102 -7 -44 -9 -46 -77 -81 -39 -20 -78 -40 -87 -45 -9 -6 -29 -14 -43 -19
	-33 -12 -59 -66 -59 -123 0 -27 -8 -54 -20 -73 -12 -16 -28 -43 -36 -60 -8 -16 -23 -46 -34 -65 -10 -19 -24 -57 -30 -85 -6 -27 -17 -59 -25 -71 -24 -37
	-28 -88 -11 -123 9 -17 23 -31 31 -31 21 0 19 -48 -2 -91 -10 -20 -20 -74 -25 -134 -4 -55 -10 -112 -14 -127 -3 -16 -4 -28 -1 -28 37 0 232 123 270 171 12
	15 47 44 76 64 l55 36 17 -22 c22 -29 66 -19 80 19 6 15 21 40 33 57 25 33 24 55 -4 55 -13 0 -19 11 -23 48 -3 26 -11 69 -17 97 -7 35 -7 66 1 110 6 33 12
	142 13 242 1 131 5 186 14 195 7 7 12 41 12 88 1 68 4 93 26 184 9 37 -24 63 -43 33z"/>
</svg>
