<?xml version="1.0" standalone="no"?>
<!DOCTYPE svg PUBLIC "-//W3C//DTD SVG 20010904//EN"
 "http://www.w3.org/TR/2001/REC-SVG-20010904/DTD/svg10.dtd">
<svg version="1.0" xmlns="http://www.w3.org/2000/svg"
 width="256.000000pt" height="500.000000pt" viewBox="0 0 256.000000 500.000000"
 preserveAspectRatio="xMidYMid meet">
	<path id='Navotas' transform="translate(0.000000,500.000000) scale(0.100000,-0.100000)" fill="#a9a9a9" stroke="#636363" stroke-width="5"
	d="M97 4183 c-4 -3 -7 -18 -7 -32 0 -30 -23 -60 -63 -85 -34 -21 -35 -20 78 -120 44 -39 80 -78 80 -87 0 -10 19 -39 42 -66 23 -26 61 -77 86 -113
	24 -36 59 -87 78 -114 58 -82 70 -107 61 -120 -12 -13 0 -47 22 -65 9 -7 16 -17 16 -22 0 -5 10 -25 22 -44 l23 -34 84 4 c46 2 86 7 90 11 3 3 -6 16 -20
	27 -14 12 -29 30 -32 40 -4 9 -17 17 -29 17 -18 0 -20 2 -8 10 12 8 11 13 -8 33 -12 13 -22 30 -22 39 0 9 -7 21 -15 28 -12 10 -18 10 -31 -1 -14 -11 -19
	-10 -35 10 -11 13 -19 36 -19 51 0 40 -28 100 -66 143 -19 20 -34 45 -34 56 0 10 -9 30 -20 44 -11 14 -20 34 -20 45 0 22 -77 92 -102 92 -19 0 -38 20 -32
	34 3 7 -4 21 -16 31 -26 23 -25 38 2 50 12 6 26 18 32 28 9 15 3 26 -44 67 -52 47 -78 59 -93 43z"/>
</svg>