<?xml version="1.0" standalone="no"?>
<!DOCTYPE svg PUBLIC "-//W3C//DTD SVG 20010904//EN"
 "http://www.w3.org/TR/2001/REC-SVG-20010904/DTD/svg10.dtd">
<svg version="1.0" xmlns="http://www.w3.org/2000/svg" width="256.000000pt" height="500.000000pt" viewBox="0 0 256.000000 500.000000" preserveAspectRatio="xMidYMid meet">
	<path id='North-Caloocan' transform="translate(0.000000,500.000000) scale(0.100000,-0.100000)" fill="#a9a9a9" stroke="#636363" stroke-width="5"
	d="M1434 4989 c-2 -5 -11 -6 -19 -3 -22 9 -75 -51 -68 -77 3 -11 2 -24 -3 -28 -5 -3 -16 -33 -25 -66 l-15 -59 -59 -22 c-113 -41 -170 -65 -183 -78
	-19 -19 5 -63 58 -109 35 -30 38 -36 25 -47 -8 -7 -15 -27 -15 -44 0 -18 -5 -37 -12 -44 -9 -9 -9 -18 0 -37 18 -39 15 -45 -19 -38 -30 6 -32 5 -27 -21 3
	-15 -1 -41 -9 -57 -8 -17 -12 -41 -9 -54 8 -31 60 -59 96 -51 19 3 30 1 34 -9 7 -20 32 -19 40 1 3 9 6 37 6 63 0 47 20 81 47 81 21 0 42 36 36 59 -4 18 -3
	22 6 16 21 -12 94 33 121 76 23 38 40 50 40 29 0 -17 23 -11 49 14 23 21 37 24 134 28 59 3 110 1 113 -4 3 -5 11 -5 17 0 7 4 30 10 52 11 68 5 116 39 150
	106 27 53 34 60 66 66 57 9 88 37 89 82 0 21 -4 36 -9 32 -6 -3 -15 3 -20 12 -10 16 -12 16 -23 3 -7 -8 -27 -15 -44 -16 -28 -1 -30 1 -26 28 4 23 1 28 -17
	28 -11 0 -21 5 -21 10 0 6 -4 10 -10 10 -5 0 -10 -9 -10 -20 0 -28 -19 -25 -30 5 -11 30 -17 31 -43 8 -18 -17 -19 -17 -28 0 -8 13 -14 15 -29 7 -25 -14
	-27 -13 -34 12 -4 18 -8 20 -18 10 -16 -16 -28 -15 -28 3 0 8 -6 12 -14 9 -8 -3 -17 2 -20 14 -6 18 -63 42 -100 42 -10 0 -24 7 -32 15 -11 10 -35 14 -85
	13 -39 -1 -72 -5 -75 -9z"/>
</svg>