<?xml version="1.0" standalone="no"?>
<!DOCTYPE svg PUBLIC "-//W3C//DTD SVG 20010904//EN"
 "http://www.w3.org/TR/2001/REC-SVG-20010904/DTD/svg10.dtd">
<svg version="1.0" xmlns="http://www.w3.org/2000/svg" width="256.000000pt" height="500.000000pt" viewBox="0 0 256.000000 500.000000" preserveAspectRatio="xMidYMid meet">
	<path id='Paranaque' transform="translate(0.000000,500.000000) scale(0.100000,-0.100000)" fill="#a9a9a9" stroke="#636363" stroke-width="5"
	d="M960 2131 c-8 -5 -37 -11 -65 -15 -109 -15 -102 -9 -107 -84 -4 -46 -14 -84 -33 -121 l-27 -55 20 -17 c12 -9 48 -25 82 -35 65 -19 67 -23 49 -86
	-7 -28 -17 -40 -35 -44 -23 -6 -44 -37 -44 -65 0 -12 84 -49 111 -49 21 0 24 -12 8 -41 -12 -24 3 -49 31 -49 11 0 30 -19 48 -48 23 -37 31 -65 36 -125 7
	-70 10 -77 29 -77 13 0 42 -21 71 -53 41 -42 52 -60 56 -96 5 -43 6 -44 56 -61 58 -19 76 -15 165 35 32 19 67 36 78 40 42 13 46 31 47 204 1 91 6 213 11
	271 5 58 7 127 5 153 -4 44 -8 50 -47 73 -23 13 -49 22 -58 18 -10 -3 -20 2 -26 15 -10 18 -15 19 -39 9 -15 -5 -44 -12 -64 -14 -30 -2 -38 1 -44 18 -5 16
	-12 19 -33 15 -23 -5 -30 -1 -45 24 -20 34 -31 36 -48 9 -15 -24 -31 -25 -48 -5 -12 14 -16 13 -41 -11 -30 -28 -54 -24 -44 7 4 11 1 26 -5 34 -9 11 -10 22
	-1 42 6 16 10 64 8 108 -2 72 -4 80 -22 82 -11 2 -27 -1 -35 -6z"/>
</svg>