<?xml version="1.0" standalone="no"?>
<!DOCTYPE svg PUBLIC "-//W3C//DTD SVG 20010904//EN"
 "http://www.w3.org/TR/2001/REC-SVG-20010904/DTD/svg10.dtd">
<svg version="1.0" xmlns="http://www.w3.org/2000/svg" width="256.000000pt" height="500.000000pt" viewBox="0 0 256.000000 500.000000" preserveAspectRatio="xMidYMid meet">
	<path id='Pasay' transform="translate(0.000000,500.000000) scale(0.100000,-0.100000)" fill="#a9a9a9" stroke="#636363" stroke-width="5"
	d="M955 2438 c-22 -5 -54 -6 -72 -3 -27 5 -78 -10 -101 -30 -2 -2 4 -33 13 -70 13 -60 14 -69 1 -79 -12 -9 -14 -27 -9 -88 l6 -77 46 6 c25 3 66 10 91
	15 25 5 52 10 60 11 12 2 15 -14 17 -80 1 -46 -2 -85 -8 -88 -13 -9 -11 -55 2 -55 7 0 9 -9 5 -24 -4 -15 0 -28 9 -36 13 -11 20 -9 44 14 25 24 29 25 41 11
	17 -21 37 -19 50 5 15 27 23 25 43 -10 15 -24 23 -29 42 -24 17 4 26 0 34 -14 8 -15 20 -19 50 -18 22 0 43 4 47 9 4 4 16 7 26 7 19 0 26 34 8 45 -5 3 -18
	25 -29 48 -63 132 -98 168 -175 182 -33 7 -33 7 -28 51 4 40 2 46 -17 51 -16 4 -21 13 -22 42 -1 20 -2 43 -3 51 0 8 -22 29 -48 45 -41 26 -48 36 -54 73 -7
	45 -7 45 -69 30z"/>
</svg>