<?xml version="1.0" standalone="no"?>
<!DOCTYPE svg PUBLIC "-//W3C//DTD SVG 20010904//EN"
 "http://www.w3.org/TR/2001/REC-SVG-20010904/DTD/svg10.dtd">
<svg version="1.0" xmlns="http://www.w3.org/2000/svg" width="256.000000pt" height="500.000000pt" viewBox="0 0 256.000000 500.000000" preserveAspectRatio="xMidYMid meet">
	<path id='Pasig' transform="translate(0.000000,500.000000) scale(0.100000,-0.100000)" fill="#a9a9a9" stroke="#636363" stroke-width="5"
	d="M1940 3130 c0 -11 -7 -23 -15 -26 -30 -12 -17 -60 26 -98 23 -19 53 -51 66 -72 31 -44 19 -64 -20 -34 -26 20 -27 21 -35 3 -4 -10 -7 -42 -6 -70 0
	-29 -3 -53 -7 -53 -3 0 -23 7 -42 15 -47 20 -90 19 -157 -4 l-55 -19 3 -42 c2 -28 -4 -53 -16 -74 -10 -17 -22 -45 -26 -61 -4 -16 -19 -40 -33 -53 -24 -22
	-24 -24 -8 -43 10 -10 28 -19 40 -19 12 0 39 -13 60 -30 21 -16 42 -30 46 -30 13 0 11 -27 -3 -51 -11 -17 -10 -22 7 -35 11 -8 24 -13 30 -10 5 2 17 7 27 11
	15 6 62 -35 117 -100 10 -13 22 -15 45 -10 86 19 104 18 110 -3 6 -17 13 -19 49 -15 23 3 50 10 60 15 18 9 24 48 6 48 -5 0 -9 9 -7 19 3 20 -28 61 -47 61
	-6 0 -17 17 -23 37 -9 31 -9 40 4 54 12 14 22 16 40 9 18 -7 32 -4 59 11 36 22 38 39 5 39 -11 0 -26 11 -35 24 -12 17 -22 22 -41 18 -24 -4 -25 -3 -15 16
	6 11 31 37 56 58 42 34 45 40 45 83 0 26 5 52 12 59 8 8 8 28 0 81 -7 38 -12 85 -12 103 0 38 -26 75 -55 80 -16 2 -21 12 -23 44 l-3 41 -100 13 c-54 7
	-102 16 -105 21 -10 16 -24 9 -24 -11z"/>
</svg>