<?xml version="1.0" standalone="no"?>
<!DOCTYPE svg PUBLIC "-//W3C//DTD SVG 20010904//EN"
 "http://www.w3.org/TR/2001/REC-SVG-20010904/DTD/svg10.dtd">
<svg version="1.0" xmlns="http://www.w3.org/2000/svg" width="256.000000pt" height="500.000000pt" viewBox="0 0 256.000000 500.000000" preserveAspectRatio="xMidYMid meet">
	<path id='Quezon-City' transform="translate(0.000000,500.000000) scale(0.100000,-0.100000)" fill="#a9a9a9" stroke="#636363" stroke-width="5"
	d="M2285 4894 c-8 -6 -15 -18 -15 -27 0 -26 -44 -49 -87 -45 -38 3 -38 3 -41 -36 -4 -45 -42 -86 -81 -86 -38 0 -46 -9 -74 -71 -28 -63 -74 -95 -143
	-100 -21 -1 -44 -7 -51 -11 -6 -5 -14 -5 -17 0 -3 5 -56 7 -118 4 -102 -4 -115 -6 -139 -28 -19 -18 -28 -21 -37 -12 -9 9 -17 5 -35 -14 -13 -14 -27 -33
	-30 -42 -7 -17 -69 -49 -97 -50 -8 -1 -17 -14 -20 -31 -3 -19 -14 -34 -31 -42 -43 -21 -47 -33 -53 -151 -6 -108 -5 -112 14 -112 11 0 20 -6 20 -14 0 -8 17
	-28 37 -45 l37 -30 -37 -53 c-20 -29 -84 -100 -142 -158 -94 -93 -105 -108 -105 -140 0 -29 -32 -117 -82 -226 -6 -12 -7 -31 -4 -42 4 -11 3 -23 -2 -26
	-5 -3 -7 -16 -5 -29 3 -14 -2 -39 -11 -56 -16 -31 -16 -32 16 -65 52 -53 296 -242 302 -234 20 26 46 79 46 92 0 18 15 22 25 6 3 -5 17 -10 31 -10 27 0 85
	-26 96 -44 5 -8 14 -7 30 3 24 15 111 16 116 2 1 -5 9 -16 16 -26 11 -15 16 -16 36 -5 27 14 43 -1 37 -37 -2 -12 -1 -24 4 -25 4 -2 3 -24 -3 -49 -12 -53
	-5 -87 15 -72 18 15 112 43 142 43 14 0 42 -7 62 -15 49 -21 66 -13 58 24 -3 16 -3 45 0 65 l7 35 30 -22 c25 -18 30 -19 38 -7 17 27 11 38 -56 104 -54 54
	-65 70 -62 91 4 20 1 25 -14 25 -15 0 -18 5 -13 19 3 11 1 22 -5 26 -15 9 -12 52 5 59 8 3 15 16 15 29 0 13 13 48 30 78 31 56 38 107 20 153 -10 28 -2 33
	30 16 25 -13 70 39 111 128 28 61 32 65 40 44 12 -31 31 -24 41 16 5 17 18 39 31 49 12 10 35 36 51 57 28 37 29 43 27 132 -1 56 2 95 8 99 6 3 11 19 11 34
	0 26 12 57 88 225 15 32 37 73 50 89 12 17 22 45 22 64 0 29 -5 34 -48 53 l-47 20 0 64 c0 36 3 68 8 72 4 4 7 16 7 26 0 11 7 18 20 18 25 0 50 47 43 82
	-4 20 1 30 22 44 67 48 85 67 85 90 l0 25 -130 -3 c-74 -2 -136 -8 -145 -14z"/>
</svg>