<?xml version="1.0" standalone="no"?>
<!DOCTYPE svg PUBLIC "-//W3C//DTD SVG 20010904//EN"
 "http://www.w3.org/TR/2001/REC-SVG-20010904/DTD/svg10.dtd">
<svg version="1.0" xmlns="http://www.w3.org/2000/svg" width="256.000000pt" height="500.000000pt" viewBox="0 0 256.000000 500.000000" preserveAspectRatio="xMidYMid meet">
	<path id='South-Caloocan' transform="translate(0.000000,500.000000) scale(0.100000,-0.100000)" fill="#a9a9a9" stroke="#636363" stroke-width="5"
	d="M1213 3923 c-7 -2 -13 -17 -13 -33 0 -64 -21 -76 -60 -35 -13 14 -33 25 -45 25 -29 0 -65 -40 -65 -72 0 -15 -4 -28 -10 -30 -5 -1 -12 -17 -16 -34
	-5 -26 -2 -32 15 -37 23 -6 29 -27 8 -27 -7 0 -26 -13 -42 -30 -16 -16 -33 -30 -38 -30 -5 0 -19 -8 -32 -18 -20 -16 -36 -18 -104 -14 -57 3 -85 1 -96 -8
	-9 -7 -35 -14 -58 -14 -36 -1 -42 -4 -39 -21 2 -11 3 -29 3 -39 0 -11 7 -25 17 -32 13 -9 14 -15 4 -27 -7 -8 -10 -21 -7 -29 4 -10 -1 -17 -15 -21 -25 -7
	-18 -27 10 -27 11 0 20 -10 24 -25 4 -14 13 -25 21 -25 8 0 18 -6 22 -14 5 -8 30 -15 63 -17 51 -4 55 -2 58 19 3 19 6 21 18 11 11 -9 18 -7 34 12 11 13 22
	32 25 42 4 9 13 17 21 17 18 0 18 -4 -2 -42 -15 -30 -15 -32 2 -45 10 -7 23 -13 30 -13 14 0 27 28 19 41 -7 11 15 78 55 165 16 37 30 83 30 102 0 31 13
	48 125 163 69 71 125 135 125 142 0 19 -58 32 -87 20z"/>
</svg>