<?xml version="1.0" standalone="no"?>
<!DOCTYPE svg PUBLIC "-//W3C//DTD SVG 20010904//EN"
 "http://www.w3.org/TR/2001/REC-SVG-20010904/DTD/svg10.dtd">
<svg version="1.0" xmlns="http://www.w3.org/2000/svg" width="256.000000pt" height="500.000000pt" viewBox="0 0 256.000000 500.000000" preserveAspectRatio="xMidYMid meet">
	<path id='Taguig' transform="translate(0.000000,500.000000) scale(0.100000,-0.100000)" fill="#a9a9a9" stroke="#636363" stroke-width="5"
	d="M1609 2426 c-23 -39 -46 -50 -87 -41 -26 5 -27 4 -28 -37 -1 -32 5 -50 23 -72 29 -35 26 -48 -17 -62 -18 -6 -37 -20 -41 -31 -7 -19 -42 -35 -79
	-38 -28 -2 -110 -49 -110 -64 0 -8 20 -46 45 -86 24 -39 49 -82 55 -96 29 -67 57 -104 75 -102 11 1 36 -8 56 -19 32 -18 37 -26 41 -67 2 -25 1 -91 -4 -146
	-4 -55 -11 -138 -14 -184 l-6 -85 33 27 c19 14 42 33 51 41 9 8 25 12 35 10 24 -6 63 94 75 196 17 135 66 267 107 290 16 8 25 5 47 -15 31 -29 69 -32 118
	-9 37 18 53 44 62 102 7 47 20 64 63 86 32 17 35 17 66 0 26 -14 40 -15 66 -7 l34 10 -27 13 c-16 7 -28 21 -28 31 0 10 -24 42 -53 71 -29 29 -58 65 -65 81
	-13 30 -29 33 -99 15 -45 -11 -47 -10 -69 17 -15 18 -26 25 -35 19 -32 -18 -69 -60 -69 -76 0 -11 -8 -18 -18 -18 -10 0 -27 -7 -38 -15 -10 -8 -29 -15
	-42 -15 -15 0 -26 -9 -32 -25 -14 -37 -22 -30 -19 15 3 30 -2 45 -21 65 -23 25 -23 26 -7 61 10 20 32 53 49 75 l31 39 -24 26 c-13 14 -36 32 -52 40 -26
	14 -28 14 -48 -20z"/>
</svg>