<?xml version="1.0" standalone="no"?>
<!DOCTYPE svg PUBLIC "-//W3C//DTD SVG 20010904//EN"
 "http://www.w3.org/TR/2001/REC-SVG-20010904/DTD/svg10.dtd">
<svg version="1.0" xmlns="http://www.w3.org/2000/svg" width="256.000000pt" height="500.000000pt" viewBox="0 0 256.000000 500.000000" preserveAspectRatio="xMidYMid meet">
	<path id='Valenzuela' transform="translate(0.000000,500.000000) scale(0.100000,-0.100000)" fill="#a9a9a9" stroke="#636363" stroke-width="5"
	d="M981 4659 c-26 -15 -32 -25 -30 -47 5 -40 -8 -54 -41 -47 -24 5 -31 1 -51 -32 -18 -29 -23 -52 -23 -103 0 -36 4 -75 8 -87 8 -22 6 -23 -42 -23
	-32 0 -54 -5 -62 -15 -9 -11 -22 -14 -41 -10 -20 5 -36 0 -57 -15 -25 -18 -33 -20 -49 -9 -11 6 -25 27 -32 45 -7 19 -18 39 -24 46 -7 7 -20 25 -29 39 -13
	20 -23 25 -45 22 -20 -3 -34 2 -47 16 -23 25 -64 27 -81 4 -11 -15 -17 -16 -53 -4 -22 8 -45 10 -51 7 -16 -10 -14 -51 4 -66 8 -7 15 -20 15 -30 0 -9 14
	-34 30 -55 17 -21 30 -44 30 -52 0 -8 9 -27 21 -41 31 -40 152 -207 165 -228 11 -19 12 -19 33 0 12 11 22 17 24 15 21 -36 37 -75 37 -90 0 -11 7 -22 15
	-25 22 -9 55 -68 55 -99 0 -27 1 -27 18 -11 25 22 78 12 86 -16 3 -15 11 -19 25 -15 15 4 21 -1 23 -17 2 -14 11 -22 28 -24 14 -2 33 -11 42 -19 13 -12 20
	-12 40 -2 69 37 112 90 120 147 2 13 15 31 30 39 28 17 26 18 94 -32 19 -14 36 6 43 52 6 32 10 38 31 37 14 0 35 -4 47 -8 19 -6 25 -3 33 20 10 24 7 31
	-25 64 -19 20 -35 41 -35 48 0 7 -9 12 -19 12 -17 0 -20 6 -18 38 2 51 -30 84 -72 76 -33 -7 -66 8 -81 36 -8 14 -6 29 5 56 8 21 13 45 10 55 -5 16 -2 18 24
	13 34 -7 41 9 20 48 -8 14 -8 23 0 31 6 6 11 28 11 48 0 21 5 41 10 44 19 12 10 36 -25 66 -19 17 -44 46 -56 65 -30 50 -49 57 -88 33z"/>
</svg>